<?xml version="1.0" encoding="UTF-8" standalone="no"?>
<svg
   xmlns:dc="http://purl.org/dc/elements/1.1/"
   xmlns:cc="http://creativecommons.org/ns#"
   xmlns:rdf="http://www.w3.org/1999/02/22-rdf-syntax-ns#"
   xmlns:svg="http://www.w3.org/2000/svg"
   xmlns="http://www.w3.org/2000/svg"
   xmlns:xlink="http://www.w3.org/1999/xlink"
   xmlns:sodipodi="http://sodipodi.sourceforge.net/DTD/sodipodi-0.dtd"
   xmlns:inkscape="http://www.inkscape.org/namespaces/inkscape"
   id="generated_logo_1"
   viewBox="0 0 233.08095 100"
   version="1.1"
   sodipodi:docname="logo_transparent.svg"
   width="233.08095"
   height="100">
  <metadata
     id="metadata46">
    <rdf:RDF>
      <cc:Work
         rdf:about="">
        <dc:format>image/svg+xml</dc:format>
        <dc:type
           rdf:resource="http://purl.org/dc/dcmitype/StillImage" />
      </cc:Work>
    </rdf:RDF>
  </metadata>
  <defs
     id="defs44" />
  <sodipodi:namedview
     pagecolor="#ffffff"
     bordercolor="#666666"
     borderopacity="1"
     objecttolerance="10"
     gridtolerance="10"
     guidetolerance="10"
     inkscape:pageopacity="0"
     inkscape:pageshadow="2"
     inkscape:window-width="640"
     inkscape:window-height="480"
     id="namedview42" />
  <style
     type="text/css"
     class="styleimportlogofontmain"
     id="style2">@import url(&quot;https://fonts.googleapis.com/css2?family=Cinzel:wght@400;500;700;900&quot;);#generated_logo_1 .maintypo { font-family: Cinzel; font-weight: 700; }</style>
  <style
     type="text/css"
     class="styleimportlogofontsub"
     id="style4">@import url(&quot;https://fonts.googleapis.com/css2?family=Oswald:wght@300;400;500;700&quot;);#generated_logo_1 .subtypo { font-family: Oswald; font-weight: 300; }</style>
  <style
     type="text/css"
     class="styleimportlogopos"
     id="style6" />
  <g
     id="logo-elements"
     transform="translate(50,50)"
     transform-box="stroke-box">
    <g
       id="iconcontainer"
       transform-origin="center"
       transform-box="fill-box">
      <g
         class="iconBGGrpM"
         id="g10">
        <g
           class="iconBGGrp"
           transform="matrix(0.1,0,0,0.1,-50,-50)"
           id="g8" />
      </g>
      <g
         class="iconGrpM"
         id="g28">
        <g
           class="iconGrp"
           transform="matrix(0.1,0,0,0.1,-50,-50)"
           id="g26">
          <g
             class="lg_icon"
             id="lg_icon_116"
             stroke="none"
             stroke-width="1"
             fill="none"
             fill-rule="evenodd">
            <g
               id="0116">
              <defs
                 id="defs13">
                <polygon
                   id="path-1"
                   points="0.00019695524,0 658.4614,0 658.4614,709.9996 0.00019695524,709.9996 " />
              </defs>
              <path
                 id="FRAME"
                 style="fill:none"
                 d="M 0,0 V 1000 H 1000 V 0 Z" />
              <g
                 id="Icon"
                 transform="translate(171,145)">
                <path
                   d="m 329.5052,440 c -16.542,0 -30,-13.458 -30,-30 0,-16.542 13.458,-30 30,-30 16.542,0 30,13.458 30,30 0,16.542 -13.458,30 -30,30 m 20,-97.085 V 220 c 0,-11.046 -8.954,-20 -20,-20 -11.046,0 -20,8.954 -20,20 v 122.915 c -28.912,8.607 -50,35.377 -50,67.085 0,38.66 31.34,70 70,70 38.66,0 70,-31.34 70,-70 0,-31.708 -21.088,-58.478 -50,-67.085"
                   id="Fill-1"
                   fill="#000000" />
                <g
                   id="Group-5">
                  <mask
                     id="mask-2"
                     fill="#ffffff">
                    <use
                       xlink:href="#path-1"
                       id="use17"
                       x="0"
                       y="0"
                       width="100%"
                       height="100%" />
                  </mask>
                  <g
                     id="Clip-4" />
                  <path
                     d="m 550.6693,316.5996 c 12.498,29.55 18.836,60.975 18.836,93.4 0,32.426 -6.338,63.851 -18.836,93.401 -12.084,28.572 -29.398,54.245 -51.459,76.304 -22.061,22.062 -47.732,39.374 -76.305,51.459 -29.548,12.499 -60.974,18.836 -93.4,18.836 -32.426,0 -63.852,-6.337 -93.4,-18.836 -28.573,-12.085 -54.245,-29.397 -76.305,-51.459 -22.061,-22.059 -39.374,-47.732 -51.459,-76.304 -12.499,-29.55 -18.836,-60.975 -18.836,-93.401 0,-32.425 6.337,-63.85 18.836,-93.4 12.085,-28.572 29.398,-54.244 51.459,-76.306 22.06,-22.059 47.732,-39.373 76.305,-51.458 29.549,-12.499 60.974,-18.836 93.4,-18.836 32.426,0 63.851,6.337 93.4,18.836 28.573,12.085 54.244,29.399 76.305,51.458 22.061,22.062 39.375,47.734 51.459,76.306 m 97.805,-168.661 -96.848,-86.721 c -12.343,-11.053 -31.309,-10.005 -42.362,2.337 -11.053,12.344 -10.006,31.31 2.337,42.362 l 26.074,23.348 -33.177,37.052 c -41.62,-29.941 -91.214,-49.488 -144.993,-54.827 v -51.49 h 35 c 16.568,0 30,-13.431 30,-30 0,-16.568 -13.432,-30 -30,-30 h -130 c -16.568,0 -30,13.432 -30,30 0,16.569 13.432,30 30,30 h 35 v 51.49 c -53.923,5.354 -103.637,24.993 -145.325,55.069 l -33.394,-37.294 26.074,-23.348 c 12.343,-11.052 13.39,-30.018 2.337,-42.362 -11.052,-12.343 -30.018,-13.389 -42.362,-2.337 l -96.848,86.721 c -12.342,11.053 -13.389,30.018 -2.337,42.362 5.926,6.617 14.125,9.987 22.36,9.987 7.125,0 14.277,-2.523 20.003,-7.65 l 26.074,-23.348 33.17,37.044 c -49.491,53.495 -79.752,125.042 -79.752,203.666 0,165.686 134.314,300 300,300 165.685,0 300,-134.314 300,-300 0,-78.771 -30.375,-150.438 -80.031,-203.965 l 32.9,-36.745 26.074,23.348 c 5.727,5.128 12.877,7.65 20.003,7.65 8.234,0 16.435,-3.371 22.36,-9.987 11.052,-12.344 10.005,-31.309 -2.337,-42.362"
                     id="Fill-3"
                     fill="#000000" />
                </g>
              </g>
            </g>
          </g>
        </g>
      </g>
    </g>
    <g
       id="textlines">
      <g
         id="einsg"
         transform="translate(-10)">
        <g
           aria-label="Xokas"
           id="eins"
           style="text-rendering:geometricPrecision">
          <path
             d="M 83.12,-29.5 98.975,-5.035 H 92.78 L 76.995,-29.5 Z m -1.995,21.98 q -0.315,0.49 -0.21,1.015 0.14,0.49 0.56,0.84 0.42,0.315 0.875,0.315 0,0 0.21,0 0.245,0 0.245,0 V -5 H 74.16 v -0.35 h 0.49 q 1.12,0 2.03,-0.63 0.91,-0.63 1.505,-1.435 z m 4.305,-10.15 1.715,1.33 L 79.41,-5 h -2.94 z m 5.74,10.15 6.265,0.14 q 0.56,0.805 1.505,1.435 0.945,0.595 2.03,0.595 h 0.49 V -5 H 89.525 v -0.35 q 0,0 0.21,0 0.245,0 0.245,0 0.7,0 1.155,-0.7 0.49,-0.7 0.035,-1.47 z M 86.375,-29.5 v 0.35 q 0,0 -0.21,0 -0.21,0 -0.21,0 -0.455,0 -0.875,0.35 -0.385,0.315 -0.525,0.84 -0.105,0.49 0.21,0.98 l -6.23,-0.105 Q 77.975,-27.89 77.03,-28.52 76.12,-29.15 75,-29.15 h -0.49 v -0.35 z m 11.585,0 -8.47,12.565 -1.435,-1.715 6.93,-10.85 z m 2.38,0 v 0.35 h -0.49 q -1.085,0 -2.03,0.63 -0.91,0.63 -1.505,1.435 l -2.94,0.105 q 0.315,-0.49 0.175,-0.98 -0.105,-0.525 -0.49,-0.84 -0.385,-0.35 -0.875,-0.35 0,0 -0.21,0 -0.21,0 -0.21,0 L 91.73,-29.5 Z"
             style="font-weight:700;font-size:35px;font-family:Cinzel;letter-spacing:1;fill:#000000"
             id="path49" />
          <path
             d="m 113.77922,-26.455 q 2.8,0 5.075,0.77 2.275,0.735 3.92,2.17 1.645,1.435 2.52,3.465 0.91,2.03 0.91,4.585 0,2.52 -0.91,4.55 -0.875,1.995 -2.52,3.43 -1.645,1.435 -3.92,2.205 -2.275,0.735 -5.075,0.735 -2.765,0 -5.04,-0.735 -2.275,-0.77 -3.92,-2.205 -1.645,-1.435 -2.52,-3.43 -0.875,-2.03 -0.875,-4.55 0,-2.555 0.875,-4.585 0.875,-2.03 2.52,-3.465 1.645,-1.435 3.92,-2.17 2.275,-0.77 5.04,-0.77 z m 0,20.545 q 2.135,0 3.71,-1.155 1.61,-1.19 2.45,-3.325 0.875,-2.135 0.875,-5.075 0,-2.975 -0.875,-5.11 -0.84,-2.17 -2.45,-3.325 -1.575,-1.19 -3.71,-1.19 -2.1,0 -3.675,1.19 -1.575,1.155 -2.45,3.325 -0.875,2.135 -0.875,5.11 0,2.94 0.875,5.075 0.875,2.135 2.45,3.325 1.575,1.155 3.675,1.155 z"
             style="font-weight:700;font-size:35px;font-family:Cinzel;letter-spacing:1;fill:#000000"
             id="path51" />
          <path
             d="m 141.36609,-18.195 7.84,10.85 q 0.665,0.98 1.4,1.505 0.735,0.49 1.715,0.525 V -5 h -2.695 q -0.35,0 -1.155,-0.035 -0.805,-0.035 -1.855,-0.245 -1.015,-0.245 -2.065,-0.805 -1.05,-0.56 -1.855,-1.61 -0.175,-0.245 -0.595,-0.84 -0.42,-0.595 -1.015,-1.4 -0.56,-0.805 -1.19,-1.645 -0.595,-0.84 -1.12,-1.575 -0.525,-0.735 -0.84,-1.19 -0.315,-0.455 -0.315,-0.455 z m 7.42,-7.595 -9.135,10.78 -2.03,0.21 8.295,-10.99 z m 2.135,-0.245 v 0.35 h -0.14 q -0.98,0 -1.855,0.385 -0.875,0.385 -1.435,1.05 l -2.695,-0.07 q 0.385,-0.49 0.14,-0.91 -0.245,-0.455 -0.84,-0.455 h -0.315 v -0.35 h 7 z m -14.315,0 V -5 h -5.04 v -21.035 z m -4.97,18.83 V -5 h -2.38 v -0.35 q 0,0 0.14,0 0.175,0 0.21,0 0.805,0 1.365,-0.525 0.56,-0.56 0.595,-1.33 z m 4.865,0 h 0.105 q 0,0.77 0.56,1.33 0.56,0.525 1.365,0.525 0.035,0 0.21,0 0.175,0 0.175,0 V -5 h -2.415 z m 0,-16.59 v -2.24 h 2.415 v 0.35 q -0.035,0 -0.21,0 -0.14,0 -0.175,0 -0.805,0 -1.365,0.56 -0.56,0.525 -0.56,1.33 z m -4.865,0 h -0.07 q -0.035,-0.805 -0.595,-1.33 -0.56,-0.56 -1.365,-0.56 0,0 -0.175,0 -0.175,0 -0.21,0 v -0.35 h 2.415 z"
             style="font-weight:700;font-size:35px;font-family:Cinzel;letter-spacing:1;fill:#000000"
             id="path53" />
          <path
             d="m 163.74508,-26.945 10.36,21.77 h -5.915 l -6.51,-15.365 z m -6.58,19.635 q -0.385,0.945 0.105,1.47 0.49,0.49 1.085,0.49 h 0.28 V -5 h -7 v -0.35 q 0,0 0.14,0 0.14,0 0.14,0 0.7,0 1.47,-0.42 0.77,-0.455 1.26,-1.54 z m 6.58,-19.635 0.07,4.2 -7.595,17.64 h -2.59 l 8.19,-17.605 q 0.07,-0.21 0.315,-0.735 0.245,-0.56 0.525,-1.225 0.28,-0.7 0.525,-1.295 0.245,-0.63 0.28,-0.98 z m 3.045,15.085 v 1.365 h -8.925 v -1.365 z m 0.525,4.55 h 5.775 q 0.525,1.085 1.295,1.54 0.77,0.42 1.47,0.42 0,0 0.14,0 0.14,0 0.14,0 V -5 h -10.29 v -0.35 h 0.28 q 0.595,0 1.085,-0.49 0.49,-0.525 0.105,-1.47 z"
             style="font-weight:700;font-size:35px;font-family:Cinzel;letter-spacing:1;fill:#000000"
             id="path55" />
          <path
             d="m 184.87883,-26.455 q 0.7,0 1.68,0.07 1.015,0.07 1.995,0.175 0.98,0.07 1.715,0.21 0.77,0.105 1.05,0.21 l -0.455,4.27 h -0.315 q 0,-1.61 -1.12,-2.555 -1.12,-0.945 -3.22,-0.945 -1.68,0 -2.73,0.735 -1.015,0.735 -1.085,1.96 -0.07,0.63 0.21,1.155 0.315,0.49 0.84,0.875 0.56,0.385 1.225,0.77 l 5.495,3.395 q 1.4,0.7 2.205,2.03 0.805,1.33 0.7,3.22 -0.105,1.96 -1.155,3.395 -1.015,1.435 -2.835,2.205 -1.785,0.735 -4.235,0.735 -1.505,0 -2.8,-0.245 -1.295,-0.245 -2.24,-0.665 -0.91,-0.42 -1.4,-0.945 -0.28,-0.7 -0.245,-1.68 0.035,-1.015 0.315,-1.995 0.28,-1.015 0.7,-1.68 h 0.28 q -0.105,1.575 0.56,2.905 0.665,1.33 1.995,2.135 1.365,0.77 3.22,0.77 2.03,0 3.045,-0.945 1.015,-0.945 1.015,-2.24 0,-0.91 -0.63,-1.645 -0.595,-0.77 -1.995,-1.505 l -4.97,-3.15 q -1.75,-0.91 -2.555,-2.415 -0.77,-1.505 -0.56,-3.29 0.175,-1.68 0.98,-2.87 0.84,-1.19 2.205,-1.82 1.365,-0.63 3.115,-0.63 z m 6.44,0.315 -0.035,0.63 h -3.745 v -0.63 z"
             style="font-weight:700;font-size:35px;font-family:Cinzel;letter-spacing:1;fill:#000000"
             id="path57" />
        </g>
      </g>
      <g
         id="zweig"
         transform="translate(-10,5)">
        <g
           aria-label="Cia"
           id="zwei"
           style="dominant-baseline:text-before-edge;text-rendering:geometricPrecision">
          <path
             d="m 81.475,20.374832 q -2.05,0 -3.175,-0.85 -1.1,-0.85 -1.525,-2.275 -0.425,-1.45 -0.425,-3.2 V 5.9998322 q 0,-1.875 0.425,-3.3 0.45,-1.425 1.575,-2.22500005 1.125,-0.8 3.125,-0.8 1.825,0 2.85,0.7 1.05,0.70000005 1.5,2.00000005 0.45,1.275 0.45,3.05 v 1.225 h -1.8 v -1.175 q 0,-1.325 -0.225,-2.275 -0.2,-0.95 -0.85,-1.475 -0.65,-0.525 -1.9,-0.525 -1.375,0 -2.075,0.575 -0.675,0.55 -0.925,1.575 -0.225,1.025 -0.225,2.375 v 8.6249998 q 0,1.5 0.275,2.5 0.3,1 1,1.5 0.7,0.5 1.95,0.5 1.275,0 1.9,-0.55 0.65,-0.55 0.85,-1.525 0.225,-1 0.225,-2.325 v -1.325 h 1.8 v 1.2 q 0,1.775 -0.425,3.15 -0.4,1.35 -1.45,2.125 -1.025,0.775 -2.925,0.775 z"
             style="font-weight:300;font-size:25px;font-family:Oswald;letter-spacing:1;dominant-baseline:text-before-edge;fill:#000000"
             id="path60" />
          <path
             d="M 90.051172,20.124832 V 5.6748322 h 1.825 V 20.124832 Z m 0,-16.4499998 v -2.475 h 1.825 v 2.475 z"
             style="font-weight:300;font-size:25px;font-family:Oswald;letter-spacing:1;dominant-baseline:text-before-edge;fill:#000000"
             id="path62" />
          <path
             d="m 98.429297,20.349832 q -0.875,0 -1.525,-0.425 -0.65,-0.45 -1.025,-1.175 -0.35,-0.75 -0.35,-1.625 0,-1.1 0.3,-1.875 0.325,-0.775 1,-1.375 0.7,-0.625 1.8,-1.2 1.125,-0.6 2.725003,-1.325 v -1.025 q 0,-1.3249998 -0.175,-2.0749998 -0.15,-0.775 -0.55,-1.1 -0.375,-0.325 -1.075003,-0.325 -0.575,0 -1.025,0.225 -0.45,0.225 -0.725,0.775 -0.275,0.525 -0.275,1.475 v 0.5 l -1.8,-0.025 q 0.025,-2.2 0.925,-3.25 0.925,-1.075 3,-1.075 1.950003,0 2.725003,1.175 0.8,1.15 0.8,3.5999998 v 7.025 q 0,0.375 0.025,0.975 0.025,0.575 0.05,1.1 0.025,0.525 0.05,0.8 h -1.625 q -0.05,-0.475 -0.15,-1.05 -0.1,-0.6 -0.125,-0.95 -0.3,0.875 -1.075,1.55 -0.750003,0.675 -1.900003,0.675 z m 0.575,-1.55 q 0.55,0 1.000003,-0.275 0.45,-0.275 0.8,-0.65 0.35,-0.4 0.55,-0.8 v -4.5 q -1.075,0.55 -1.850003,1 -0.75,0.45 -1.225,0.875 -0.475,0.425 -0.7,0.975 -0.225,0.525 -0.225,1.25 0,1.15 0.5,1.65 0.5,0.475 1.15,0.475 z"
             style="font-weight:300;font-size:25px;font-family:Oswald;letter-spacing:1;dominant-baseline:text-before-edge;fill:#000000"
             id="path64" />
        </g>
      </g>
    </g>
  </g>
</svg>
